<svg height="511pt" viewBox="0 -32 511.99976 511" width="511pt" xmlns="http://www.w3.org/2000/svg"><path d="m438.058594 205.542969v242.617187h-364.113282v-242.617187h15v-93.148438h334.109376v93.148438zm0 0" fill="#00a6ff"/><path d="m438.058594 205.542969v242.617187h-182.058594v-335.765625h167.054688v93.148438zm0 0" fill="#006ef5"/><path d="m505.550781 215.625c-6.710937 11.921875-17.664062 20.460938-30.847656 24.054688-13.191406 3.597656-26.964844 1.800781-38.785156-5.070313l-.601563-.363281-179.304687-115.601563-.011719.007813-179.617188 115.796875-.300781.167969c-7.839843 4.550781-16.542969 6.882812-25.363281 6.882812-4.480469 0-8.992188-.601562-13.433594-1.8125-13.191406-3.601562-24.144531-12.152344-30.84375-24.074219-13.445312-23.925781-5.152344-54.582031 18.460938-68.492187l231.097656-146.609375.011719-.011719 231.085937 146.609375c23.625 13.921875 31.90625 44.589844 18.453125 68.515625zm0 0" fill="#ffb74f"/><path d="m186.074219 258.34375h139.851562v189.816406h-139.851562zm0 0" fill="#55fbff"/><path d="m256 258.34375h69.925781v189.816406h-69.925781zm0 0" fill="#00d9e0"/><path d="m505.550781 215.625c-6.710937 11.921875-17.664062 20.460938-30.847656 24.054688-13.191406 3.597656-26.964844 1.800781-38.785156-5.070313l-.601563-.363281-179.304687-115.601563-.011719.007813v-118.140625l.011719-.011719 231.085937 146.609375c23.625 13.921875 31.90625 44.589844 18.453125 68.515625zm0 0" fill="#ff9a00"/></svg>